<?xml version="1.0" standalone="no"?>
<!DOCTYPE svg PUBLIC "-//W3C//DTD SVG 20010904//EN"
 "http://www.w3.org/TR/2001/REC-SVG-20010904/DTD/svg10.dtd">
<svg version="1.0" xmlns="http://www.w3.org/2000/svg"
 width="626.000000pt" height="626.000000pt" viewBox="0 0 626.000000 626.000000"
 preserveAspectRatio="xMidYMid meet">

<g transform="translate(0.000000,626.000000) scale(0.100000,-0.100000)"
fill="#000000" stroke="none">
<path d="M3120 5924 c-170 -26 -293 -65 -467 -150 -516 -251 -861 -665 -917
-1099 l-6 -50 19 31 c16 27 103 94 121 94 4 0 10 -69 13 -152 4 -118 11 -175
30 -248 30 -114 109 -322 136 -356 11 -14 27 -59 37 -102 9 -42 25 -99 34
-127 10 -27 21 -74 25 -103 4 -29 9 -51 12 -49 2 3 -3 68 -11 145 -9 78 -16
180 -16 227 l0 85 40 0 c48 0 54 -10 69 -105 16 -108 38 -168 71 -202 51 -52
84 -58 300 -58 177 0 199 2 241 21 72 34 99 82 161 294 17 58 44 73 119 66 83
-8 107 -22 120 -70 56 -214 90 -270 183 -298 57 -18 406 -17 466 1 95 28 139
104 160 280 6 47 13 87 15 89 2 3 10 2 18 -1 22 -8 27 -84 17 -234 -13 -175
-85 -685 -105 -742 -37 -105 -95 -170 -275 -307 -74 -56 -175 -135 -225 -173
-125 -98 -151 -106 -390 -106 -185 0 -192 1 -246 26 -67 32 -492 370 -543 432
-44 54 -79 133 -94 212 -7 33 -17 83 -22 110 l-9 50 4 -60 c19 -234 52 -304
203 -434 l72 -63 0 -148 0 -149 -79 -41 c-156 -81 -385 -356 -467 -563 -22
-54 13 -38 -404 -187 -415 -149 -439 -158 -579 -233 -143 -75 -211 -131 -299
-248 -34 -45 -146 -273 -167 -340 -5 -14 55 -41 322 -148 407 -162 487 -187
838 -265 393 -87 861 -142 1300 -153 358 -8 841 22 1220 78 546 79 1201 266
1548 441 71 36 72 26 -22 223 -123 256 -169 306 -381 415 -103 52 -749 309
-967 385 -7 2 -13 15 -13 28 0 45 -225 333 -357 458 -38 36 -99 82 -135 102
l-65 36 -7 62 c-3 34 -6 101 -6 149 l0 86 83 71 c103 86 149 142 176 210 12
31 44 196 76 390 80 498 79 491 114 527 22 22 31 42 31 64 0 18 18 90 39 160
80 261 106 465 81 644 -40 294 -186 496 -360 500 -28 1 -54 6 -59 12 -5 6 -11
35 -15 64 -31 246 -282 452 -597 492 -81 10 -158 11 -209 4z m-340 -845 c36
-9 97 -29 135 -44 194 -75 304 -94 470 -83 126 8 199 27 298 78 53 27 79 36
82 27 48 -145 127 -335 210 -503 72 -145 110 -235 124 -290 10 -43 17 -81 15
-83 -2 -2 -34 15 -71 37 -62 37 -77 42 -172 51 -299 31 -506 1 -596 -85 -28
-28 -34 -29 -148 -34 -105 -4 -120 -3 -128 12 -15 29 -92 75 -155 94 -50 16
-94 18 -279 18 -243 -1 -261 -4 -331 -66 -22 -18 -54 -41 -71 -51 l-33 -18 0
28 c1 95 60 263 145 413 20 36 25 58 25 115 0 38 5 90 11 114 36 157 153 274
289 291 61 7 85 5 180 -21z m65 -854 c119 -42 146 -90 120 -218 -18 -90 -50
-190 -72 -224 -30 -46 -92 -58 -293 -58 -173 0 -188 1 -232 23 -36 18 -52 34
-68 67 -45 94 -62 296 -30 366 26 57 88 69 345 65 140 -3 191 -7 230 -21z
m1102 -4 c63 -36 87 -93 87 -201 -1 -145 -45 -245 -121 -277 -47 -19 -288 -28
-398 -14 -135 16 -167 48 -205 204 -27 114 -25 204 6 238 24 28 93 59 153 69
25 5 134 8 241 7 186 -2 197 -3 237 -26z m-1241 -1602 c168 -129 152 -124 414
-124 221 0 226 0 280 26 30 14 100 61 155 105 55 43 116 91 136 106 l36 27 6
-196 c4 -108 7 -247 7 -310 0 -74 4 -113 11 -113 6 0 42 -19 80 -41 83 -50 86
-61 33 -164 -57 -112 -187 -339 -199 -348 -5 -4 -27 -12 -48 -17 -21 -6 -35
-15 -33 -19 3 -4 -8 -29 -24 -55 -16 -25 -26 -46 -22 -46 4 0 2 -4 -3 -8 -6
-4 -24 -28 -40 -54 -33 -52 -42 -57 -160 -89 -114 -31 -277 -31 -400 0 -50 13
-99 31 -110 40 -11 9 -40 46 -64 81 -24 36 -61 85 -81 110 -54 66 -57 74 -29
65 13 -4 27 -12 30 -17 3 -5 12 -10 20 -12 8 -1 23 -7 35 -13 115 -64 395
-103 529 -73 27 6 5 7 -70 3 -214 -10 -430 48 -593 159 -24 17 -46 27 -50 23
-3 -3 0 -11 8 -16 13 -9 13 -10 0 -6 -8 2 -14 12 -14 21 1 9 -9 24 -23 33 -42
28 -119 202 -147 335 -6 26 -2 30 69 65 l75 37 0 319 0 320 43 -39 c24 -22 88
-73 143 -115z m1638 -1099 c-6 -59 -8 -62 -16 -35 -5 19 -4 77 4 155 l13 125
3 -90 c2 -49 0 -119 -4 -155z m-1394 -237 c50 -13 109 -17 257 -17 106 -1 193
-4 193 -8 0 -8 -76 -132 -102 -167 -10 -13 -18 -29 -18 -35 0 -6 5 -4 11 4 9
13 10 13 6 0 -2 -8 -10 -15 -17 -15 -14 0 -130 -180 -130 -202 0 -22 -18 -14
-33 15 -47 88 -97 172 -173 292 -101 158 -104 164 -78 156 10 -3 48 -13 84
-23z m417 1 c-3 -3 -12 -4 -19 -1 -8 3 -5 6 6 6 11 1 17 -2 13 -5z m-231 -703
c-12 -11 -19 -12 -27 -4 -8 8 -6 11 7 10 17 -2 20 8 24 78 l4 80 4 -74 c2 -57
-1 -78 -12 -90z m-29 72 c-3 -10 -5 -2 -5 17 0 19 2 27 5 18 2 -10 2 -26 0
-35z"/>
<path d="M2575 4500 c-70 -11 -98 -24 -145 -66 -37 -34 -100 -134 -84 -134 3
0 19 11 35 24 16 14 54 34 85 45 57 22 80 22 314 7 14 -1 29 3 33 9 6 7 10 6
14 -2 7 -18 23 -16 23 3 0 10 6 14 15 10 9 -3 15 0 15 8 0 22 -37 62 -72 79
-41 18 -166 28 -233 17z"/>
<path d="M3465 4486 c-16 -7 -41 -26 -55 -41 -22 -24 -23 -28 -9 -38 9 -7 14
-18 11 -26 -3 -10 0 -11 9 -5 8 5 84 7 169 6 169 -3 233 -15 294 -57 21 -14
40 -24 42 -22 5 5 -45 78 -80 115 -58 63 -97 76 -231 79 -87 2 -128 -1 -150
-11z"/>
<path d="M2555 4148 c-42 -15 -84 -45 -123 -86 -38 -41 -34 -57 6 -20 32 31
124 88 141 88 8 0 7 -9 -4 -30 -19 -36 -19 -53 0 -90 22 -42 62 -60 102 -43
43 17 63 49 63 100 0 24 5 43 10 43 6 0 34 -21 62 -47 28 -27 46 -38 40 -26
-16 29 -90 92 -129 109 -38 16 -125 17 -168 2z m110 -47 c7 -12 -29 -33 -39
-24 -3 3 -6 12 -6 20 0 15 36 18 45 4z"/>
<path d="M3542 4147 c-37 -11 -126 -87 -143 -121 -7 -12 6 -4 32 20 24 23 54
47 66 53 21 10 22 9 21 -30 -1 -61 27 -93 84 -97 40 -3 49 1 68 25 17 22 21
38 18 75 -2 27 1 48 6 48 13 0 102 -58 116 -76 7 -7 17 -14 23 -14 6 0 -7 19
-28 41 -74 77 -172 105 -263 76z m48 -63 c0 -8 -10 -14 -25 -14 -26 0 -35 25
-12 33 18 6 37 -3 37 -19z"/>
<path d="M2084 3755 c-4 -8 -3 -23 1 -32 7 -17 8 -16 15 2 5 11 9 26 9 33 1
17 -18 15 -25 -3z"/>
<path d="M2162 3560 c0 -19 2 -27 5 -17 2 9 2 25 0 35 -3 9 -5 1 -5 -18z"/>
<path d="M2963 3513 c-20 -8 -15 -31 8 -38 25 -8 89 2 89 14 0 9 -55 32 -74
30 -6 0 -17 -3 -23 -6z"/>
<path d="M3228 3504 c-41 -22 -34 -34 20 -34 26 0 56 -2 67 -4 11 -2 15 -1 8
1 -7 2 -9 11 -6 20 12 32 -43 43 -89 17z"/>
<path d="M2192 3390 c0 -14 2 -19 5 -12 2 6 2 18 0 25 -3 6 -5 1 -5 -13z"/>
<path d="M2715 3239 c-8 -13 -14 -9 65 -36 117 -40 362 -54 554 -33 93 11 206
45 206 62 0 6 -8 7 -17 3 -89 -39 -131 -46 -292 -51 -236 -7 -392 6 -458 40
-34 17 -54 22 -58 15z"/>
</g>
</svg>
