<svg width="25" height="26" viewBox="0 0 25 26" fill="none" xmlns="http://www.w3.org/2000/svg">
<path d="M24.3255 11.1089L24.3238 11.1072L14.1257 1.01076C13.6911 0.580204 13.1131 0.343018 12.4984 0.343018C11.8837 0.343018 11.3057 0.580015 10.8709 1.01058L0.678172 11.1019C0.674739 11.1053 0.671306 11.1089 0.667872 11.1123C-0.224767 12.0012 -0.223241 13.4434 0.672259 14.33C1.08139 14.7353 1.62174 14.97 2.19947 14.9945C2.22293 14.9968 2.24658 14.9979 2.27043 14.9979H2.67688V22.4283C2.67688 23.8987 3.88519 25.095 5.37063 25.095H9.36042C9.76478 25.095 10.0928 24.7703 10.0928 24.3698V18.5444C10.0928 17.8734 10.6441 17.3277 11.3217 17.3277H13.675C14.3527 17.3277 14.9039 17.8734 14.9039 18.5444V24.3698C14.9039 24.7703 15.2318 25.095 15.6364 25.095H19.6262C21.1116 25.095 22.3199 23.8987 22.3199 22.4283V14.9979H22.6968C23.3113 14.9979 23.8893 14.7609 24.3243 14.3304C25.2208 13.4423 25.2212 11.9976 24.3255 11.1089Z" fill="#2D60FF"/>
</svg>
