<svg width="21" height="21" viewBox="0 0 21 21" fill="none" xmlns="http://www.w3.org/2000/svg">
<path d="M20.3692 10.728C20.37 10.0466 20.312 9.36637 20.1957 8.69479H10.7V12.546H16.1387C16.0274 13.1611 15.7919 13.7474 15.4462 14.2697C15.1006 14.7919 14.6521 15.2393 14.1277 15.5847V18.0846H17.3736C19.2741 16.3444 20.3692 13.7709 20.3692 10.728Z" fill="#4285F4"/>
<path d="M10.6999 20.5C13.4172 20.5 15.7051 19.6139 17.3735 18.0862L14.1276 15.5864C13.2242 16.1947 12.0606 16.5419 10.6999 16.5419C8.07353 16.5419 5.84432 14.7836 5.04718 12.4143H1.70337V14.9906C2.54144 16.6467 3.82654 18.0389 5.41518 19.0118C7.00382 19.9847 8.83349 20.4999 10.6999 20.5Z" fill="#34A853"/>
<path d="M5.0471 12.414C4.62568 11.1724 4.62568 9.82793 5.0471 8.58639V6.01013H1.70329C0.998276 7.40333 0.631104 8.94096 0.631104 10.5002C0.631104 12.0594 0.998276 13.597 1.70329 14.9902L5.0471 12.414Z" fill="#FBBC04"/>
<path d="M10.6999 4.45879C12.1359 4.43549 13.5234 4.97429 14.5626 5.95872L17.4365 3.10469C15.6141 1.40488 13.1999 0.471659 10.6999 0.500656C8.83349 0.500741 7.00382 1.01598 5.41518 1.98886C3.82654 2.96174 2.54144 4.35397 1.70337 6.0101L5.04718 8.58636C5.84432 6.21704 8.07353 4.45879 10.6999 4.45879Z" fill="#EA4335"/>
</svg>
